<?xml version="1.0" standalone="yes"?>
<!-- SVG graphic -->
<svg xmlns='http://www.w3.org/2000/svg' xmlns:xlink='http://www.w3.org/1999/xlink'
 version="1.1">
<rect x="0" y="1.52588e-05" width="6" height="200" stroke="black" stroke-width="1" fill="blue" tooltip="enable"><title>(0,100804)</title></rect><rect x="6" y="77.5664" width="6" height="122.434" stroke="black" stroke-width="1" fill="blue" tooltip="enable"><title>(0.0397867,61709)</title></rect><rect x="12" y="108.547" width="6" height="91.4527" stroke="black" stroke-width="1" fill="blue" tooltip="enable"><title>(0.0795734,46094)</title></rect><rect x="18" y="133.173" width="6" height="66.8267" stroke="black" stroke-width="1" fill="blue" tooltip="enable"><title>(0.11936,33682)</title></rect><rect x="24" y="151.458" width="6" height="48.5417" stroke="black" stroke-width="1" fill="blue" tooltip="enable"><title>(0.159147,24466)</title></rect><rect x="30" y="165.021" width="6" height="34.9788" stroke="black" stroke-width="1" fill="blue" tooltip="enable"><title>(0.198933,17630)</title></rect><rect x="36" y="174.404" width="6" height="25.5962" stroke="black" stroke-width="1" fill="blue" tooltip="enable"><title>(0.23872,12901)</title></rect><rect x="42" y="180.83" width="6" height="19.1699" stroke="black" stroke-width="1" fill="blue" tooltip="enable"><title>(0.278507,9662)</title></rect><rect x="48" y="185.58" width="6" height="14.4201" stroke="black" stroke-width="1" fill="blue" tooltip="enable"><title>(0.318293,7268)</title></rect><rect x="54" y="188.955" width="6" height="11.0452" stroke="black" stroke-width="1" fill="blue" tooltip="enable"><title>(0.35808,5567)</title></rect><rect x="60" y="191.375" width="6" height="8.62466" stroke="black" stroke-width="1" fill="blue" tooltip="enable"><title>(0.397867,4347)</title></rect><rect x="66" y="193.209" width="6" height="6.7914" stroke="black" stroke-width="1" fill="blue" tooltip="enable"><title>(0.437653,3423)</title></rect><rect x="72" y="194.657" width="6" height="5.34304" stroke="black" stroke-width="1" fill="blue" tooltip="enable"><title>(0.47744,2693)</title></rect><rect x="78" y="195.701" width="6" height="4.29943" stroke="black" stroke-width="1" fill="blue" tooltip="enable"><title>(0.517227,2167)</title></rect><rect x="84" y="196.502" width="6" height="3.49788" stroke="black" stroke-width="1" fill="blue" tooltip="enable"><title>(0.557014,1763)</title></rect><rect x="90" y="197.099" width="6" height="2.90068" stroke="black" stroke-width="1" fill="blue" tooltip="enable"><title>(0.5968,1462)</title></rect><rect x="96" y="197.572" width="6" height="2.42847" stroke="black" stroke-width="1" fill="blue" tooltip="enable"><title>(0.636587,1224)</title></rect><rect x="102" y="197.806" width="6" height="2.19436" stroke="black" stroke-width="1" fill="blue" tooltip="enable"><title>(0.676374,1106)</title></rect><rect x="108" y="198.234" width="6" height="1.7658" stroke="black" stroke-width="1" fill="blue" tooltip="enable"><title>(0.71616,890)</title></rect><rect x="114" y="198.524" width="6" height="1.47613" stroke="black" stroke-width="1" fill="blue" tooltip="enable"><title>(0.755947,744)</title></rect><rect x="120" y="198.714" width="6" height="1.28566" stroke="black" stroke-width="1" fill="blue" tooltip="enable"><title>(0.795734,648)</title></rect><rect x="126" y="198.8" width="6" height="1.20035" stroke="black" stroke-width="1" fill="blue" tooltip="enable"><title>(0.83552,605)</title></rect><rect x="132" y="198.956" width="6" height="1.04361" stroke="black" stroke-width="1" fill="blue" tooltip="enable"><title>(0.875307,526)</title></rect><rect x="138" y="199.085" width="6" height="0.914646" stroke="black" stroke-width="1" fill="blue" tooltip="enable"><title>(0.915094,461)</title></rect><rect x="144" y="199.3" width="6" height="0.700369" stroke="black" stroke-width="1" fill="blue" tooltip="enable"><title>(0.95488,353)</title></rect><rect x="150" y="199.274" width="6" height="0.726162" stroke="black" stroke-width="1" fill="blue" tooltip="enable"><title>(0.994667,366)</title></rect><rect x="156" y="199.369" width="6" height="0.630927" stroke="black" stroke-width="1" fill="blue" tooltip="enable"><title>(1.03445,318)</title></rect><rect x="162" y="199.423" width="6" height="0.577358" stroke="black" stroke-width="1" fill="blue" tooltip="enable"><title>(1.07424,291)</title></rect><rect x="168" y="199.524" width="6" height="0.476172" stroke="black" stroke-width="1" fill="blue" tooltip="enable"><title>(1.11403,240)</title></rect><rect x="174" y="199.49" width="6" height="0.5099" stroke="black" stroke-width="1" fill="blue" tooltip="enable"><title>(1.15381,257)</title></rect><rect x="180" y="199.597" width="6" height="0.402762" stroke="black" stroke-width="1" fill="blue" tooltip="enable"><title>(1.1936,203)</title></rect><rect x="186" y="199.613" width="6" height="0.386889" stroke="black" stroke-width="1" fill="blue" tooltip="enable"><title>(1.23339,195)</title></rect><rect x="192" y="199.661" width="6" height="0.339272" stroke="black" stroke-width="1" fill="blue" tooltip="enable"><title>(1.27317,171)</title></rect><rect x="198" y="199.667" width="6" height="0.33332" stroke="black" stroke-width="1" fill="blue" tooltip="enable"><title>(1.31296,168)</title></rect><rect x="204" y="199.694" width="6" height="0.305543" stroke="black" stroke-width="1" fill="blue" tooltip="enable"><title>(1.35275,154)</title></rect><rect x="210" y="199.748" width="6" height="0.251974" stroke="black" stroke-width="1" fill="blue" tooltip="enable"><title>(1.39253,127)</title></rect><rect x="216" y="199.786" width="6" height="0.214277" stroke="black" stroke-width="1" fill="blue" tooltip="enable"><title>(1.43232,108)</title></rect><rect x="222" y="199.772" width="6" height="0.228166" stroke="black" stroke-width="1" fill="blue" tooltip="enable"><title>(1.47211,115)</title></rect><rect x="228" y="199.756" width="6" height="0.244038" stroke="black" stroke-width="1" fill="blue" tooltip="enable"><title>(1.51189,123)</title></rect><rect x="234" y="199.81" width="6" height="0.190469" stroke="black" stroke-width="1" fill="blue" tooltip="enable"><title>(1.55168,96)</title></rect><rect x="240" y="199.821" width="6" height="0.178564" stroke="black" stroke-width="1" fill="blue" tooltip="enable"><title>(1.59147,90)</title></rect><rect x="246" y="199.81" width="6" height="0.190469" stroke="black" stroke-width="1" fill="blue" tooltip="enable"><title>(1.63125,96)</title></rect><rect x="252" y="199.804" width="6" height="0.196421" stroke="black" stroke-width="1" fill="blue" tooltip="enable"><title>(1.67104,99)</title></rect><rect x="258" y="199.823" width="6" height="0.17658" stroke="black" stroke-width="1" fill="blue" tooltip="enable"><title>(1.71083,89)</title></rect><rect x="264" y="199.823" width="6" height="0.17658" stroke="black" stroke-width="1" fill="blue" tooltip="enable"><title>(1.75061,89)</title></rect><rect x="270" y="199.869" width="6" height="0.130947" stroke="black" stroke-width="1" fill="blue" tooltip="enable"><title>(1.7904,66)</title></rect><rect x="276" y="199.841" width="6" height="0.158724" stroke="black" stroke-width="1" fill="blue" tooltip="enable"><title>(1.83019,80)</title></rect><rect x="282" y="199.835" width="6" height="0.164676" stroke="black" stroke-width="1" fill="blue" tooltip="enable"><title>(1.86997,83)</title></rect><rect x="288" y="199.875" width="6" height="0.124995" stroke="black" stroke-width="1" fill="blue" tooltip="enable"><title>(1.90976,63)</title></rect><rect x="294" y="199.897" width="6" height="0.103171" stroke="black" stroke-width="1" fill="blue" tooltip="enable"><title>(1.94955,52)</title></rect><rect x="300" y="199.899" width="6" height="0.101186" stroke="black" stroke-width="1" fill="blue" tooltip="enable"><title>(1.98933,51)</title></rect><rect x="306" y="199.901" width="6" height="0.0992024" stroke="black" stroke-width="1" fill="blue" tooltip="enable"><title>(2.02912,50)</title></rect><rect x="312" y="199.905" width="6" height="0.0952343" stroke="black" stroke-width="1" fill="blue" tooltip="enable"><title>(2.06891,48)</title></rect><rect x="318" y="199.921" width="6" height="0.0793619" stroke="black" stroke-width="1" fill="blue" tooltip="enable"><title>(2.10869,40)</title></rect><rect x="324" y="199.919" width="6" height="0.081346" stroke="black" stroke-width="1" fill="blue" tooltip="enable"><title>(2.14848,41)</title></rect><rect x="330" y="199.938" width="6" height="0.0615055" stroke="black" stroke-width="1" fill="blue" tooltip="enable"><title>(2.18827,31)</title></rect><rect x="336" y="199.931" width="6" height="0.0694417" stroke="black" stroke-width="1" fill="blue" tooltip="enable"><title>(2.22805,35)</title></rect><rect x="342" y="199.913" width="6" height="0.0872981" stroke="black" stroke-width="1" fill="blue" tooltip="enable"><title>(2.26784,44)</title></rect><rect x="348" y="199.944" width="6" height="0.0555533" stroke="black" stroke-width="1" fill="blue" tooltip="enable"><title>(2.30763,28)</title></rect><rect x="354" y="199.948" width="6" height="0.0515853" stroke="black" stroke-width="1" fill="blue" tooltip="enable"><title>(2.34741,26)</title></rect><rect x="360" y="199.921" width="6" height="0.0793619" stroke="black" stroke-width="1" fill="blue" tooltip="enable"><title>(2.3872,40)</title></rect><rect x="366" y="199.921" width="6" height="0.0793619" stroke="black" stroke-width="1" fill="blue" tooltip="enable"><title>(2.42699,40)</title></rect><rect x="372" y="199.946" width="6" height="0.0535693" stroke="black" stroke-width="1" fill="blue" tooltip="enable"><title>(2.46677,27)</title></rect><rect x="378" y="199.937" width="6" height="0.0634895" stroke="black" stroke-width="1" fill="blue" tooltip="enable"><title>(2.50656,32)</title></rect><rect x="384" y="199.942" width="6" height="0.0575374" stroke="black" stroke-width="1" fill="blue" tooltip="enable"><title>(2.54635,29)</title></rect><rect x="390" y="199.95" width="6" height="0.0496012" stroke="black" stroke-width="1" fill="blue" tooltip="enable"><title>(2.58613,25)</title></rect><rect x="396" y="199.94" width="6" height="0.0595214" stroke="black" stroke-width="1" fill="blue" tooltip="enable"><title>(2.62592,30)</title></rect><rect x="402" y="199.954" width="6" height="0.0456331" stroke="black" stroke-width="1" fill="blue" tooltip="enable"><title>(2.66571,23)</title></rect><rect x="408" y="199.958" width="6" height="0.041665" stroke="black" stroke-width="1" fill="blue" tooltip="enable"><title>(2.70549,21)</title></rect><rect x="414" y="199.933" width="6" height="0.0674576" stroke="black" stroke-width="1" fill="blue" tooltip="enable"><title>(2.74528,34)</title></rect><rect x="420" y="199.948" width="6" height="0.0515853" stroke="black" stroke-width="1" fill="blue" tooltip="enable"><title>(2.78507,26)</title></rect><rect x="426" y="199.948" width="6" height="0.0515853" stroke="black" stroke-width="1" fill="blue" tooltip="enable"><title>(2.82485,26)</title></rect><rect x="432" y="199.952" width="6" height="0.0476172" stroke="black" stroke-width="1" fill="blue" tooltip="enable"><title>(2.86464,24)</title></rect><rect x="438" y="199.944" width="6" height="0.0555533" stroke="black" stroke-width="1" fill="blue" tooltip="enable"><title>(2.90443,28)</title></rect><rect x="444" y="199.972" width="6" height="0.0277767" stroke="black" stroke-width="1" fill="blue" tooltip="enable"><title>(2.94421,14)</title></rect><rect x="450" y="199.958" width="6" height="0.041665" stroke="black" stroke-width="1" fill="blue" tooltip="enable"><title>(2.984,21)</title></rect><rect x="456" y="199.958" width="6" height="0.041665" stroke="black" stroke-width="1" fill="blue" tooltip="enable"><title>(3.02379,21)</title></rect><rect x="462" y="199.968" width="6" height="0.0317448" stroke="black" stroke-width="1" fill="blue" tooltip="enable"><title>(3.06357,16)</title></rect><rect x="468" y="199.96" width="6" height="0.039681" stroke="black" stroke-width="1" fill="blue" tooltip="enable"><title>(3.10336,20)</title></rect><rect x="474" y="199.956" width="6" height="0.0436491" stroke="black" stroke-width="1" fill="blue" tooltip="enable"><title>(3.14315,22)</title></rect><rect x="480" y="199.962" width="6" height="0.0376969" stroke="black" stroke-width="1" fill="blue" tooltip="enable"><title>(3.18293,19)</title></rect><rect x="486" y="199.962" width="6" height="0.0376969" stroke="black" stroke-width="1" fill="blue" tooltip="enable"><title>(3.22272,19)</title></rect><rect x="492" y="199.972" width="6" height="0.0277767" stroke="black" stroke-width="1" fill="blue" tooltip="enable"><title>(3.26251,14)</title></rect><rect x="498" y="199.98" width="6" height="0.0198405" stroke="black" stroke-width="1" fill="blue" tooltip="enable"><title>(3.30229,10)</title></rect><rect x="504" y="199.972" width="6" height="0.0277767" stroke="black" stroke-width="1" fill="blue" tooltip="enable"><title>(3.34208,14)</title></rect><rect x="510" y="199.982" width="6" height="0.0178564" stroke="black" stroke-width="1" fill="blue" tooltip="enable"><title>(3.38187,9)</title></rect><rect x="516" y="199.972" width="6" height="0.0277767" stroke="black" stroke-width="1" fill="blue" tooltip="enable"><title>(3.42165,14)</title></rect><rect x="522" y="199.968" width="6" height="0.0317448" stroke="black" stroke-width="1" fill="blue" tooltip="enable"><title>(3.46144,16)</title></rect><rect x="528" y="199.968" width="6" height="0.0317448" stroke="black" stroke-width="1" fill="blue" tooltip="enable"><title>(3.50123,16)</title></rect><rect x="534" y="199.978" width="6" height="0.0218245" stroke="black" stroke-width="1" fill="blue" tooltip="enable"><title>(3.54101,11)</title></rect><rect x="540" y="199.968" width="6" height="0.0317448" stroke="black" stroke-width="1" fill="blue" tooltip="enable"><title>(3.5808,16)</title></rect><rect x="546" y="199.98" width="6" height="0.0198405" stroke="black" stroke-width="1" fill="blue" tooltip="enable"><title>(3.62059,10)</title></rect><rect x="552" y="199.968" width="6" height="0.0317448" stroke="black" stroke-width="1" fill="blue" tooltip="enable"><title>(3.66037,16)</title></rect><rect x="558" y="199.98" width="6" height="0.0198405" stroke="black" stroke-width="1" fill="blue" tooltip="enable"><title>(3.70016,10)</title></rect><rect x="564" y="199.978" width="6" height="0.0218245" stroke="black" stroke-width="1" fill="blue" tooltip="enable"><title>(3.73995,11)</title></rect><rect x="570" y="199.988" width="6" height="0.0119043" stroke="black" stroke-width="1" fill="blue" tooltip="enable"><title>(3.77973,6)</title></rect><rect x="576" y="199.982" width="6" height="0.0178564" stroke="black" stroke-width="1" fill="blue" tooltip="enable"><title>(3.81952,9)</title></rect><rect x="582" y="199.994" width="6" height="0.00595214" stroke="black" stroke-width="1" fill="blue" tooltip="enable"><title>(3.85931,3)</title></rect><rect x="588" y="199.988" width="6" height="0.0119043" stroke="black" stroke-width="1" fill="blue" tooltip="enable"><title>(3.89909,6)</title></rect><rect x="594" y="199.992" width="6" height="0.00793619" stroke="black" stroke-width="1" fill="blue" tooltip="enable"><title>(3.93888,4)</title></rect><text x="30" y="240" font-size="20" fill="black">0</text>
<text x="600" y="240" font-size="20" fill="black">3.97867</text>
<polyline points="0,220,600,220" stroke="black" stroke-width="1" fill="none"/>
<text x="720" y="20" font-size="20" fill="black">100804</text>
<text x="720" y="200" font-size="20" fill="black">0</text>
<polyline points="660,0,660,200" stroke="black" stroke-width="1" fill="none"/>
</svg>